<svg width="143" height="239" viewBox="0 0 143 239" fill="#000" xmlns="http://www.w3.org/2000/svg">
<path d="M60.3458 8.09978C70.134 7.80805 79.4298 7.65147 88.7047 7.12501C90.8943 7.00072 93.6024 6.21022 95.0565 4.72917C99.7981 -0.100308 105.535 -0.172515 111.579 0.0781896C116.022 0.262513 120.479 0.114349 125.39 0.114349C123.175 4.1127 119.676 7.63731 119.747 11.0889C119.817 14.5298 123.467 17.8974 126.214 22.3875C122.501 24.21 118.294 26.2753 114.93 27.9262C118.129 30.0475 122.562 32.9865 126.994 35.9255C127.012 36.6161 127.031 37.3067 127.049 37.9973C121.879 40.465 116.71 42.9326 112.428 44.9766C120.636 44.1357 122.668 51.3992 125.9 58.6966C117.621 58.6966 110.024 59.0193 102.484 58.5038C100.165 58.3452 97.9324 55.995 95.7864 54.4706C93.068 52.5396 90.6938 51.9138 88.9339 55.546C87.532 58.4391 85.2454 58.9408 82.1157 59.2385C69.2213 60.4653 58.0109 58.0467 47.6944 49.203C37.297 40.29 23.7889 38.1901 10.4502 37.3329C8.30789 37.1952 5.96462 40.1842 3.45734 41.904C-1.04513 37.7772 -1.38526 26.7255 3.83392 21.289C11.0816 13.7394 20.482 10.3469 30.4904 9.28134C40.2073 8.24683 50.0553 8.44366 60.3458 8.09978ZM42.9713 16.1534C39.5409 16.3498 36.1104 16.5462 32.7005 16.7414C31.6994 20.98 33.385 23.0423 36.884 22.2025C39.466 21.5827 41.6819 19.4378 44.9373 18.0613C48.7243 17.3842 52.5113 16.7071 56.2984 16.03C56.2385 15.6158 56.1786 15.2015 56.1187 14.7873C52.01 15.3103 47.9013 15.8333 42.9713 16.1534Z" fill="#080808"/>
<path d="M122.859 184.511C118.495 198.469 110.256 208.47 97.3224 214.356C114.653 201.392 119.438 184.127 114.802 163.717C112.675 154.353 109.858 145.141 107.208 135.901C105.68 130.572 103.863 125.326 101.241 120.188C101.241 125.326 101.241 130.463 101.241 135.601C90.5555 114.562 89.7824 92.8008 95.5644 70.4925C95.5546 85.2773 97.3455 99.6888 104.076 113.328C104.076 106.571 104.076 99.8151 104.076 93.0588C104.417 92.9705 104.757 92.8822 105.098 92.7938C105.573 93.6589 106.223 94.4721 106.498 95.3968C112.106 114.292 117.857 133.147 123.172 152.125C126.136 162.708 125.999 173.481 122.859 184.511Z" fill="#080808"/>
<path d="M35.9123 195.341C39.4078 200.708 42.7123 205.741 46.0168 210.773C45.9074 210.991 45.7981 211.209 45.6888 211.427C44.2977 210.554 42.7625 209.846 41.5376 208.782C28.1073 197.111 21.9821 181.891 23.9368 164.675C26.7757 139.671 36.2662 116.281 44.4943 92.6593C44.5631 92.4617 44.977 92.3842 45.6762 92.0148C45.6762 99.2713 45.6762 106.28 45.6762 114.459C52.5703 99.8221 54.9097 85.3789 55.0817 70.4115C60.3789 92.6192 59.11 114.211 48.593 135.011C48.593 129.985 48.593 124.958 48.593 118.739C47.6201 120.302 47.1187 120.825 46.9349 121.443C42.2606 137.161 37.2956 152.803 33.0997 168.648C30.7491 177.525 32.2497 186.475 35.9123 195.341Z" fill="#080808"/>
<path d="M114.387 217.135C121.874 207.875 129.932 199.84 134.214 188.312C138.343 177.2 137.658 166.442 136.805 155.5C136.173 147.399 133.766 139.437 132.106 131.193C132.639 131.571 133.643 131.893 133.906 132.524C143.295 155.101 145.785 178.017 136.859 201.362C135.802 204.126 134.595 207.293 132.465 209.109C120.922 218.947 109.077 228.433 97.2819 237.973C96.7509 238.402 95.6903 238.177 93.2175 238.418C100.828 230.767 107.484 224.077 114.387 217.135Z" fill="#080808"/>
<path d="M22.1989 212.357C21.1886 212.159 20.3933 212.223 18.914 212.341C3.19395 197.264 2.99146 156.311 15.5941 134.693C14.7059 139.34 13.2626 143.961 13.0397 148.639C12.497 160.026 10.7814 171.769 12.8504 182.744C14.5975 192.01 18.9914 201.307 26.724 208.451C35.2501 216.328 42.8405 225.222 50.7611 233.745C52.0072 235.086 52.8442 236.807 53.4763 238.66C41.2499 232.076 31.2271 223.061 22.1989 212.357Z" fill="#080808"/>
<path d="M61.1252 198.087C65.0913 209.687 64.1643 223.022 59.8749 227.338C58.8186 218.901 58.0013 209.758 56.408 200.751C55.611 196.246 53.1696 192.058 51.8847 187.607C50.3759 182.381 49.3154 177.026 48.8807 171.488C55.2234 179.275 59.8426 187.704 61.1252 198.087Z" fill="#080808"/>
<path d="M97.2588 186.972C91.0858 200.129 88.424 213.614 89.2535 227.822C81.6569 213.878 87.3683 184.108 100.7 171.683C99.5964 176.656 98.4932 181.628 97.2588 186.972Z" fill="#080808"/>
<path d="M74.1718 217.967C73.4766 216.592 72.3545 215.277 72.1534 213.833C70.4611 201.688 68.9292 189.521 67.379 177.356C67.258 176.407 67.3631 175.43 67.3631 174.114C69.5016 174.114 71.455 174.114 73.8542 174.62C74.2574 189.407 74.2146 203.687 74.1718 217.967Z" fill="#080808"/>
<path d="M75.4387 174.187C77.5536 174.187 79.6686 174.187 82.3266 174.187C81.1306 183.677 80.0629 192.8 78.8028 201.896C78.0816 207.101 77.0475 212.263 75.8072 217.222C75.453 202.728 75.4458 188.457 75.4387 174.187Z" fill="#080808"/>
<path d="M66.8215 172.097C65.0611 170.791 63.7503 169.492 62.4394 168.194C63.9495 167.184 65.4049 165.416 66.9798 165.303C72.1175 164.931 77.3239 164.878 82.4486 165.33C84.0671 165.473 85.5118 167.587 87.036 168.799C85.4457 169.899 83.9244 171.806 82.2522 171.949C77.2904 172.373 72.2691 172.102 66.8215 172.097Z" fill="#080808"/>
<rect x="65.3458" y="64.1001" width="19" height="99" rx="4" fill="#080808"/>
</svg>
